<svg xmlns="http://www.w3.org/2000/svg" xmlns:xlink="http://www.w3.org/1999/xlink" version="1.1" x="0px" y="0px" width="100px" height="100px" viewBox="0 0 100 100" enable-background="new 0 0 100 100" xml:space="preserve">
<symbol id="Arrow_27" viewBox="-22.847 -13.155 45.693 26.311">
	<polygon fill="none" points="-22.847,-13.155 22.847,-13.155 22.847,13.155 -22.847,13.155  "/>
	<g>
		<polygon points="-22.847,-9.518 0.073,-9.518 0.073,-13.155 22.847,0 0.073,13.155 0.073,9.521 -22.847,9.521   "/>
	</g>
</symbol>
<g id="Captions" display="none">
	<rect x="-192" display="inline" width="185" height="99"/>
	<rect y="-36" display="inline" width="100" height="30"/>
	<text transform="matrix(1 0 0 1 66 -19.5)" display="inline" fill="#000000" font-family="'Helvetica'" font-size="2.4">http://thenounproject.com</text>
	<text transform="matrix(1 0 0 1 7.166 -24.5)" display="inline"><tspan x="0" y="0" fill="#000000" font-family="'Helvetica-Bold'" font-size="6.1578">The Noun Project</tspan><tspan x="1.12" y="4.8" fill="#000000" font-family="'Helvetica-Bold'" font-size="4">Icon Template</tspan></text>
	
		<text transform="matrix(1 0 0 1 -178.5 10.5)" display="inline" fill="#000000" font-family="'Helvetica-Bold'" font-size="6.1578">Reminders</text>
	<line display="inline" fill="#000000" stroke="#FFFFFF" stroke-miterlimit="10" x1="8" y1="-14.5" x2="18" y2="-14.5"/>
	<line display="inline" fill="#000000" stroke="#FFFFFF" stroke-miterlimit="10" x1="-179" y1="16.5" x2="-162" y2="16.5"/>
	<g display="inline">
		<g>
			<g>
				<rect x="-170.802" y="31.318" fill="#000000" width="8.721" height="8.642"/>
				<path fill="#000000" d="M-164.455,42.312h4.747v-4.703h-4.747V42.312z M-159.266,42.749h-5.63V37.17h5.63V42.749      L-159.266,42.749z M-166.221,44.062h8.279v-8.203h-8.279V44.062L-166.221,44.062z M-157.5,44.5h-9.163v-9.079h9.163V44.5      L-157.5,44.5z"/>
				<polygon fill="#000000" points="-166.149,44.133 -166.292,43.991 -158.013,35.787 -157.871,35.929     "/>
			</g>
		</g>
	</g>
	<rect x="-179" y="58" display="inline" fill="none" width="35" height="32.5"/>
	<text transform="matrix(1 0 0 1 -179 60.1572)" display="inline"><tspan x="0" y="0" fill="#000000" font-family="'Helvetica-Bold'" font-size="3">Strokes</tspan><tspan x="0" y="5" fill="#000000" font-family="'Helvetica'" font-size="2.4">Try to keep strokes at 4px</tspan><tspan x="0" y="10" fill="#000000" font-family="'Helvetica'" font-size="2.4">Minimum stroke weight is 2px</tspan><tspan x="0" y="14.5" fill="#000000" font-family="'Helvetica'" font-size="2.4">For thicker strokes use even </tspan><tspan x="0" y="17.5" fill="#000000" font-family="'Helvetica'" font-size="2.4">numbers: 6px, 8px etc.</tspan><tspan x="0" y="22" fill="#000000" font-family="'Helvetica-Bold'" font-size="2.4">Remember to expand strokes </tspan><tspan x="0" y="25" fill="#000000" font-family="'Helvetica-Bold'" font-size="2.4">before saving as an SVG </tspan></text>
	<rect x="-136.5" y="58" display="inline" fill="none" width="35" height="32.5"/>
	<text transform="matrix(1 0 0 1 -136.5 60.1572)" display="inline"><tspan x="0" y="0" fill="#000000" font-family="'Helvetica-Bold'" font-size="3">Size</tspan><tspan x="0" y="5" fill="#000000" font-family="'Helvetica'" font-size="2.4">Cannot be wider or taller than </tspan><tspan x="0" y="8.5" fill="#000000" font-family="'Helvetica'" font-size="2.4">100px (artboard size)</tspan><tspan x="0" y="13.5" fill="#000000" font-family="'Helvetica'" font-size="2.4">Scale your icon to fill as much of </tspan><tspan x="0" y="16.5" fill="#000000" font-family="'Helvetica'" font-size="2.4">the artboard as possible</tspan></text>
	<rect x="-94" y="58" display="inline" fill="none" width="35" height="32.5"/>
	<text transform="matrix(1 0 0 1 -94 60.1572)" display="inline"><tspan x="0" y="0" fill="#000000" font-family="'Helvetica-Bold'" font-size="3">Ungroup</tspan><tspan x="0" y="5" fill="#000000" font-family="'Helvetica'" font-size="2.4">If your design has more than one </tspan><tspan x="0" y="8" fill="#000000" font-family="'Helvetica'" font-size="2.4">shape, make sure to ungroup</tspan></text>
	<rect x="-50" y="58" display="inline" fill="none" width="35" height="32.5"/>
	<text transform="matrix(1 0 0 1 -50 60.1572)" display="inline"><tspan x="0" y="0" fill="#000000" font-family="'Helvetica-Bold'" font-size="3">Save as</tspan><tspan x="0" y="5" fill="#000000" font-family="'Helvetica'" font-size="2.4">Save as .SVG and make sure </tspan><tspan x="0" y="8" fill="#000000" font-family="'Helvetica'" font-size="2.4">&#8220;Use Artboards&#8221; is checked</tspan></text>
	
		<text transform="matrix(1.0074 0 0 1 -125.542 30.5933)" display="inline" fill="#000000" font-family="'Helvetica'" font-size="2.5731">100px</text>
	
		<text transform="matrix(1.0074 0 0 1 -41 39)" display="inline" fill="#000000" font-family="'Helvetica-Bold'" font-size="5.1462">.SVG</text>
	<rect x="-126.514" y="34.815" display="inline" fill="#000000" width="10.261" height="10.185"/>
	<rect x="-126.477" y="31.766" display="inline" fill="#000000" width="0.522" height="2.337"/>
	<rect x="-116.812" y="31.766" display="inline" fill="#000000" width="0.523" height="2.337"/>
	<rect x="-127" y="32.337" display="inline" fill="#000000" width="11.233" height="0.572"/>
	<g display="inline">
		<rect x="-83.805" y="33.844" fill="#000000" width="10.305" height="10.156"/>
		<rect x="-76.809" y="28.707" fill="#000000" width="3.308" height="3.261"/>
	</g>
	<rect x="-178.5" y="22.5" display="inline" fill="#000000" stroke="#FFFFFF" stroke-miterlimit="10" width="30" height="30"/>
	<rect x="-136.5" y="22.5" display="inline" fill="#000000" stroke="#FFFFFF" stroke-miterlimit="10" width="30" height="30"/>
	<rect x="-93.5" y="22.5" display="inline" fill="#000000" stroke="#FFFFFF" stroke-miterlimit="10" width="30" height="30"/>
	<rect x="-49.5" y="22.5" display="inline" fill="#000000" stroke="#FFFFFF" stroke-miterlimit="10" width="30" height="30"/>
</g>
<g id="Your_Icon">
	<path fill="#000000" d="M48.392,21.786c4.086,0,7.393-3.311,7.393-7.393S52.478,7,48.392,7C44.307,7,41,10.311,41,14.393   S44.306,21.786,48.392,21.786z"/>
	<path fill="#000000" d="M48.816,58.334c0,0.062,0.174,0.168,0.184,0.158v31.236C49,92.088,50.459,94,52.816,94   c2.359,0,4-1.912,4-4.271V31.727L75,38c3,1,2.477,0.816,2.816,0.816c1.451,0,2.539-0.932,3-2.39c0.566-1.801-0.201-3.72-2-4.288   l-24-8.511c0,0-3.67-1.578-6.816-1.578c-4.069,0-6.703,1.578-6.703,1.578l-23.907,8.511c-1.8,0.568-2.798,2.487-2.231,4.288   c0.567,1.799,2.484,2.799,4.288,2.231l18.891-6.93v58.002c0,2.359,1.913,4.271,4.272,4.271c2.359,0,4.272-1.912,4.272-4.271V58.492   c0.01,0.01,0-0.096,0-0.158"/>
</g>
<g id="Layer_3" display="none">
	<g display="inline">
		<polygon fill="#000000" points="57,56 49,49 48,75 57,84   "/>
		<polygon fill="#000000" points="87,55 79,48 78,74 87,83   "/>
		
			<rect x="48" y="47" fill="#000000" stroke="#000000" stroke-width="2" stroke-linecap="square" stroke-linejoin="round" stroke-miterlimit="10" width="30" height="29"/>
		
			<line fill="none" stroke="#000000" stroke-width="2" stroke-linecap="round" stroke-miterlimit="10" x1="59.402" y1="57.604" x2="48.597" y2="47.396"/>
		
			<line fill="none" stroke="#000000" stroke-width="2" stroke-linecap="round" stroke-miterlimit="10" x1="87.905" y1="56.008" x2="78" y2="47"/>
		
			<line fill="none" stroke="#000000" stroke-width="2" stroke-linecap="round" stroke-miterlimit="10" x1="58.012" y1="85.988" x2="47.989" y2="76.012"/>
		
			<line fill="none" stroke="#000000" stroke-width="2" stroke-linecap="round" stroke-miterlimit="10" x1="75.369" y1="85.602" x2="64.631" y2="76.398"/>
		
			<rect x="58" y="56" fill="#000000" stroke="#000000" stroke-width="2" stroke-linecap="square" stroke-linejoin="round" stroke-miterlimit="10" width="30" height="30"/>
		<polygon fill="#000000" points="85,55 58,55 51,48 78,48   "/>
		<polygon fill="#000000" points="57,84 49,76 49,49 57,57   "/>
	</g>
	<g display="inline">
		<polygon fill="#000000" points="22,56 14,49 13,75 22,84   "/>
		<polygon fill="#000000" points="52,55 44,48 43,74 52,83   "/>
		
			<rect x="13" y="47" fill="#000000" stroke="#000000" stroke-width="2" stroke-linecap="square" stroke-linejoin="round" stroke-miterlimit="10" width="30" height="29"/>
		
			<line fill="none" stroke="#000000" stroke-width="2" stroke-linecap="round" stroke-miterlimit="10" x1="24.402" y1="57.604" x2="13.597" y2="47.396"/>
		
			<line fill="none" stroke="#000000" stroke-width="2" stroke-linecap="round" stroke-miterlimit="10" x1="52.905" y1="56.008" x2="43" y2="47"/>
		
			<line fill="none" stroke="#000000" stroke-width="2" stroke-linecap="round" stroke-miterlimit="10" x1="23.012" y1="85.988" x2="12.989" y2="76.012"/>
		
			<line fill="none" stroke="#000000" stroke-width="2" stroke-linecap="round" stroke-miterlimit="10" x1="40.369" y1="85.602" x2="29.631" y2="76.398"/>
		
			<rect x="23" y="56" fill="#000000" stroke="#000000" stroke-width="2" stroke-linecap="square" stroke-linejoin="round" stroke-miterlimit="10" width="30" height="30"/>
		<polygon fill="#000000" points="50,55 23,55 16,48 43,48   "/>
		<polygon fill="#000000" points="22,84 14,76 14,49 22,57   "/>
	</g>
	<g display="inline">
		<polygon fill="#000000" points="41,26 33,19 32,45 41,54   "/>
		<polygon fill="#000000" points="71,25 63,18 62,44 71,53   "/>
		
			<rect x="32" y="17" fill="#000000" stroke="#000000" stroke-width="2" stroke-linecap="square" stroke-linejoin="round" stroke-miterlimit="10" width="30" height="29"/>
		
			<line fill="none" stroke="#000000" stroke-width="2" stroke-linecap="round" stroke-miterlimit="10" x1="43.402" y1="27.604" x2="32.597" y2="17.396"/>
		
			<line fill="none" stroke="#000000" stroke-width="2" stroke-linecap="round" stroke-miterlimit="10" x1="71.905" y1="26.008" x2="62" y2="17"/>
		
			<line fill="none" stroke="#000000" stroke-width="2" stroke-linecap="round" stroke-miterlimit="10" x1="42.012" y1="55.988" x2="31.989" y2="46.012"/>
		
			<line fill="none" stroke="#000000" stroke-width="2" stroke-linecap="round" stroke-miterlimit="10" x1="59.369" y1="55.602" x2="48.631" y2="46.398"/>
		
			<rect x="42" y="26" fill="#000000" stroke="#000000" stroke-width="2" stroke-linecap="square" stroke-linejoin="round" stroke-miterlimit="10" width="30" height="30"/>
		<polygon fill="#000000" points="69,25 42,25 35,18 62,18   "/>
		<polygon fill="#000000" points="41,54 33,46 33,19 41,27   "/>
	</g>
	
		<use xlink:href="#Arrow_27" width="45.693" height="26.311" x="-22.847" y="-13.155" transform="matrix(7.341402e-12 -0.1635 -0.1635 -7.341402e-12 67.8486 31.2642)" display="inline" overflow="visible"/>
	
		<use xlink:href="#Arrow_27" width="45.693" height="26.311" x="-22.847" y="-13.155" transform="matrix(7.341402e-12 -0.1635 -0.1635 -7.341402e-12 84.1514 61.2637)" display="inline" overflow="visible"/>
	
		<use xlink:href="#Arrow_27" width="45.693" height="26.311" x="-22.847" y="-13.155" transform="matrix(7.341402e-12 -0.1635 -0.1635 -7.341402e-12 49.1514 61.2637)" display="inline" overflow="visible"/>
</g>
</svg>